HIERARCHY
ROOT Hips
{
	OFFSET 0.000000 0.000000 0.000000
	CHANNELS 6 Xposition Yposition Zposition Zrotation Yrotation Xrotation 
	JOINT LHipJoint
	{
		OFFSET 0.000000 0.000000 0.000000
		CHANNELS 3 Zrotation Yrotation Xrotation
		JOINT LeftUpLeg
		{
			OFFSET 1.363060 -1.794630 0.839290
			CHANNELS 3 Zrotation Yrotation Xrotation
			JOINT LeftLeg
			{
				OFFSET 2.448110 -6.726130 0.000000
				CHANNELS 3 Zrotation Yrotation Xrotation
				JOINT LeftFoot
				{
					OFFSET 2.562200 -7.039590 0.000000
					CHANNELS 3 Zrotation Yrotation Xrotation
					JOINT LeftToeBase
					{
						OFFSET 0.157640 -0.433110 2.322550
						CHANNELS 3 Zrotation Yrotation Xrotation
						End Site
						{
							OFFSET 0.000000 0.000000 0.000000
						}
					}
				}
			}
		}
	}
	JOINT RHipJoint
	{
		OFFSET 0.000000 0.000000 0.000000
		CHANNELS 3 Zrotation Yrotation Xrotation
		JOINT RightUpLeg
		{
			OFFSET -1.305520 -1.794630 0.839290
			CHANNELS 3 Zrotation Yrotation Xrotation
			JOINT RightLeg
			{
				OFFSET -2.542530 -6.985550 0.000000
				CHANNELS 3 Zrotation Yrotation Xrotation
				JOINT RightFoot
				{
					OFFSET -2.568260 -7.056230 0.000000
					CHANNELS 3 Zrotation Yrotation Xrotation
					JOINT RightToeBase
					{
						OFFSET -0.164730 -0.452590 2.363150
						CHANNELS 3 Zrotation Yrotation Xrotation
						End Site
						{
							OFFSET 0.000000 0.000000 0.000000
						}
					}
				}
			}
		}
	}
}
MOTION
Frames: 22
Frame Time: 0.008333
4.144760 17.390646 1.010956 26.141501 -88.619973 -16.854047 -10.678479 2.677392 2.404947 -6.807229 9.028801 -10.645493 -2.189667 -1.292264 -3.695122 0.615400 7.632587 3.481658 1.913200 0.000001 -38.900800 10.226250 -2.147820 1.865423 1.698560 -6.539806 -7.944471 2.134668 1.017646 -0.480381 -0.280938 -2.819857 4.444160 -1.168000 0.000000 -65.689300
4.132892 17.392032 0.990419 22.549441 -88.106768 -13.097962 -10.730854 2.646757 2.468970 -6.795611 8.844516 -10.828546 -2.204169 -1.310121 -3.790562 0.597611 7.421542 3.676761 1.883701 -0.000000 -39.158600 10.160277 -2.175882 1.903011 1.778041 -6.447352 -8.248156 2.108335 0.991388 0.004563 -0.359674 -3.205611 4.085183 -1.231700 0.000000 -64.922600
4.120487 17.393600 0.968674 20.445290 -87.687851 -10.808941 -10.757010 2.626401 2.530498 -6.778777 8.704957 -11.009576 -2.221238 -1.331187 -3.937901 0.589255 7.229654 3.892698 1.853200 0.000000 -39.409400 10.120075 -2.193207 1.955192 1.866616 -6.294617 -8.637852 2.080793 0.959601 0.580606 -0.435324 -3.558460 3.716013 -1.283800 0.000000 -64.200899
4.106944 17.395376 0.945609 19.340030 -87.378324 -9.476839 -10.768180 2.615696 2.599093 -6.766407 8.594066 -11.205171 -2.239777 -1.358637 -4.156346 0.595374 7.086048 4.132634 1.827000 -0.000000 -39.627300 10.093233 -2.203157 2.034601 1.958908 -6.051930 -9.140969 2.052077 0.925028 1.238150 -0.508806 -3.887693 3.341977 -1.327699 0.000000 -63.540000
4.092869 17.397156 0.921432 19.050030 -87.200831 -8.938286 -10.770255 2.614276 2.664496 -6.758983 8.536139 -11.390919 -2.258995 -1.389637 -4.433377 0.614817 6.991458 4.387397 1.805101 0.000000 -39.810301 10.076573 -2.204651 2.130674 2.044078 -5.742854 -9.724171 2.024295 0.887190 1.956930 -0.572716 -4.152786 2.980071 -1.356300 -0.000000 -62.984600
4.078239 17.398855 0.896319 19.532100 -87.179384 -9.148693 -10.764737 2.623089 2.727012 -6.758593 8.535053 -11.567723 -2.277826 -1.424279 -4.768390 0.649963 6.962026 4.650104 1.790600 -0.000000 -39.943500 10.068770 -2.197774 2.246296 2.118342 -5.360261 -10.381587 1.998470 0.848529 2.711081 -0.623929 -4.342678 2.643558 -1.369500 0.000000 -62.554100
4.063250 17.400331 0.870622 20.904536 -87.344054 -10.236176 -10.747803 2.643152 2.780239 -6.764455 8.606369 -11.776209 -2.294652 -1.455043 -5.047059 0.695437 7.002439 4.850635 1.784500 0.000000 -40.019800 10.073098 -2.180158 2.379337 2.179567 -4.908039 -11.088717 1.976211 0.811810 3.468894 -0.657094 -4.435831 2.348491 -1.365800 0.000000 -62.264800
4.047992 17.401488 0.844772 23.527908 -87.732861 -12.571547 -10.700552 2.671333 2.812060 -6.778076 8.759689 -12.256448 -2.306109 -1.452504 -4.742059 0.720843 7.112078 4.681142 1.787300 0.000000 -40.034200 10.100652 -2.146938 2.532390 2.231948 -4.383542 -11.823631 1.958740 0.781621 4.197865 -0.667382 -4.416813 2.109470 -1.345200 -0.000000 -62.120200
4.032945 17.402213 0.819415 28.279082 -88.379385 -17.043971 -10.605206 2.726670 2.825049 -6.774924 9.033127 -12.717839 -2.315706 -1.444054 -4.433499 0.759319 7.287960 4.468139 1.796400 -0.000000 -39.994200 10.178106 -2.088679 2.696919 2.290657 -3.797294 -12.551303 1.947985 0.759675 4.863661 -0.649754 -4.265177 1.941107 -1.305500 -0.000001 -62.120900
4.017338 17.402520 0.794869 37.784033 -89.323885 -26.259592 -10.373964 2.819733 2.821424 -6.723362 9.425553 -13.178343 -2.327130 -1.435906 -4.130881 0.811212 7.537226 4.212726 1.814399 0.000000 -39.890800 10.387366 -1.995427 2.894722 2.397943 -3.119049 -13.287983 1.942381 0.746082 5.436479 -0.607336 -3.999216 1.848251 -1.250800 -0.000000 -62.239400
4.002131 17.402296 0.771977 -119.927496 -89.547782 131.734152 -9.819404 2.875389 2.737537 -6.522703 9.944498 -13.575681 -2.357221 -1.468248 -3.808096 0.848553 7.772911 3.939996 1.833800 0.000000 -39.751700 10.904340 -1.926839 3.152047 2.655542 -2.416705 -13.997424 1.942522 0.694716 5.851215 -0.558583 -3.647173 1.828406 -1.175800 0.000000 -62.471500
3.986861 17.401590 0.751178 -71.341422 -88.950144 83.455482 -9.331208 2.491379 2.456242 -6.328735 10.431630 -13.856249 -2.432672 -1.662177 -3.361920 0.794932 7.841426 3.740464 1.853200 0.000000 -39.586400 11.340591 -2.280585 3.531373 2.889326 -1.869434 -14.729021 1.960022 0.485628 5.990456 -0.572905 -3.350339 1.799898 -1.080499 -0.000000 -62.792500
3.975390 17.399667 0.728403 156.140275 -89.191175 -143.875088 -10.262205 2.017392 1.992441 -6.993604 12.257160 -13.808826 -2.533556 -1.788444 -3.288784 0.726200 7.794857 3.736618 1.839600 0.000000 -39.550400 10.450191 -2.793955 3.969910 2.106592 -0.298422 -15.415944 1.946219 0.328186 6.326219 -0.546607 -2.886666 1.722996 -0.972100 -0.000000 -63.135800
3.960184 17.398002 0.712940 165.747813 -87.420359 -153.285953 -10.647499 2.041985 1.894364 -7.180506 13.280313 -14.060749 -2.536443 -1.765907 -3.133012 0.795376 8.165252 3.445201 1.854800 -0.000001 -39.384800 10.080314 -2.824931 4.162469 1.910906 0.488994 -15.950596 2.008428 0.365033 6.408663 -0.382934 -2.017281 1.940953 -0.828400 0.000000 -63.588100
3.944715 17.395937 0.700474 171.374270 -85.453743 -158.747000 -10.889755 2.110549 1.768936 -7.288011 14.484299 -14.265770 -2.546602 -1.739293 -3.019614 0.868516 8.543414 3.141999 1.865200 -0.000000 -39.236900 9.850655 -2.816086 4.371384 1.799620 1.326991 -16.438828 2.082862 0.411980 6.385098 -0.193078 -1.014421 2.247941 -0.657799 -0.000000 -64.082601
3.929038 17.393513 0.691120 175.062214 -83.337727 -162.301580 -11.061198 2.190610 1.613618 -7.338966 15.843736 -14.412977 -2.563717 -1.714033 -2.938520 0.940967 8.923547 2.835964 1.870901 -0.000000 -39.116100 9.690925 -2.798929 4.594732 1.743615 2.195135 -16.880575 2.170670 0.460102 6.271447 0.015229 0.106592 2.634391 -0.457500 -0.000000 -64.613200
3.913267 17.390805 0.684723 177.673820 -81.087297 -164.811646 -11.195814 2.274433 1.434156 -7.345050 17.333132 -14.506495 -2.586501 -1.689447 -2.878093 1.013122 9.312723 2.528109 1.873200 -0.000000 -39.022300 9.567575 -2.780346 4.830886 1.727445 3.089510 -17.285880 2.270795 0.506873 6.095900 0.236719 1.332438 3.091979 -0.225300 -0.000000 -65.174100
3.897440 17.387896 0.681004 179.621516 -78.718606 -166.687748 -11.309052 2.359144 1.236503 -7.311114 18.922398 -14.550883 -2.613347 -1.664380 -2.824135 1.086654 9.723099 2.215798 1.873500 -0.000000 -38.949800 9.464738 -2.761629 5.078658 1.742180 4.011139 -17.663742 2.380724 0.550128 5.887980 0.465679 2.646026 3.610780 0.040100 -0.000000 -65.760799
3.881674 17.384877 0.679627 -178.876377 -76.251326 -168.144224 -11.408611 2.442539 1.026743 -7.240979 20.578893 -14.557916 -2.642843 -1.637816 -2.756296 1.163405 10.166205 1.893581 1.872400 0.000000 -38.886600 9.373448 -2.742968 5.338650 1.781328 4.964805 -18.026907 2.497171 0.587962 5.674131 0.695812 4.024539 4.180060 0.338300 0.000000 -66.368000
3.866319 17.381841 0.680207 -177.700107 -73.706520 -169.300798 -11.498939 2.522492 0.808422 -7.137153 22.268363 -14.530625 -2.672986 -1.608598 -2.656748 1.245490 10.655740 1.557029 1.870901 -0.000000 -38.816000 9.288299 -2.723390 5.608472 1.836902 5.952949 -18.378474 2.616391 0.618462 5.475230 0.921328 5.445858 4.787418 0.668301 -0.000000 -66.989799
3.851547 17.378850 0.682272 -176.773910 -71.106353 -170.227693 -11.582988 2.597467 0.585923 -7.005687 23.958646 -14.482127 -2.702629 -1.575760 -2.503795 1.334423 11.199274 1.200106 1.868200 0.000000 -38.718900 9.204887 -2.702446 5.888054 1.900764 6.980628 -18.725440 2.734794 0.640884 5.305100 1.136790 6.883179 5.420421 1.026700 -0.000000 -67.617700
3.837714 17.375986 0.685431 -176.048770 -68.474109 -170.971691 -11.662909 2.666262 0.361920 -6.853188 25.621403 -14.423183 -2.730846 -1.538122 -2.279480 1.431206 11.800280 0.818641 1.862700 0.000000 -38.576000 9.119937 -2.678960 6.175071 1.964667 8.048462 -19.067802 2.849394 0.655306 5.168659 1.338088 8.311508 6.068158 1.408900 -0.000000 -68.241700
